<svg width="1840" height="1151" viewBox="0 0 1840 1151" fill="none" xmlns="http://www.w3.org/2000/svg">
<path d="M950.839 561.161C1105.39 561.161 1230.67 435.764 1230.67 281.08C1230.67 126.396 1105.39 1 950.839 1C796.289 1 671 126.396 671 281.08C671 435.764 796.289 561.161 950.839 561.161Z" fill="#567892"/>
<path d="M559.408 0.685425H0V560.578H559.408V0.685425Z" fill="#E6908B"/>
<path d="M0 1040.58V784.738H83.52L86.88 826.978L75.84 825.058C80.32 816.738 85.6 809.698 91.68 803.938C97.76 798.178 104.48 793.538 111.84 790.018C119.2 786.178 126.72 783.458 134.4 781.858C142.08 780.258 149.44 779.458 156.48 779.458C168.32 779.458 179.2 781.218 189.12 784.738C199.36 787.938 208.32 793.538 216 801.538C224 809.538 230.56 820.738 235.68 835.138L221.76 834.178L225.6 827.458C230.4 819.138 236 812.098 242.4 806.338C249.12 800.578 256.48 795.618 264.48 791.458C272.48 787.298 280.64 784.258 288.96 782.338C297.6 780.418 305.76 779.458 313.44 779.458C334.24 779.458 351.68 783.458 365.76 791.458C379.84 799.458 390.4 811.298 397.44 826.978C404.48 842.338 408 861.218 408 883.618V1040.58H318.72V890.818C318.72 882.498 317.44 875.618 314.88 870.178C312.32 864.418 308.64 860.098 303.84 857.218C299.04 854.338 293.12 852.898 286.08 852.898C280.64 852.898 275.52 853.858 270.72 855.778C266.24 857.378 262.4 859.938 259.2 863.458C256 866.658 253.44 870.338 251.52 874.498C249.6 878.338 248.64 882.978 248.64 888.418V1040.58H159.36V890.338C159.36 882.338 158.08 875.618 155.52 870.178C152.96 864.738 149.28 860.578 144.48 857.698C139.68 854.498 133.76 852.898 126.72 852.898C121.28 852.898 116.16 853.858 111.36 855.778C106.88 857.378 103.04 859.778 99.84 862.978C96.64 866.178 94.08 869.858 92.16 874.018C90.24 878.178 89.28 882.818 89.28 887.938V1040.58H0Z" fill="#33434F"/>
<path d="M496.59 1150.98L558.03 1006.02L558.99 1045.38L437.55 784.738H537.39L580.11 886.498C583.63 894.498 586.67 902.498 589.23 910.498C592.11 918.178 594.19 925.538 595.47 932.578L585.39 940.258C586.67 936.098 588.59 930.338 591.15 922.978C593.71 915.618 596.59 907.138 599.79 897.538L638.67 784.738H738.99L628.11 1040.58L583.47 1150.98H496.59Z" fill="#33434F"/>
<path d="M781.084 1040.58V704.578H933.244C956.924 704.578 976.924 707.938 993.244 714.658C1009.88 721.378 1022.52 730.818 1031.16 742.978C1039.8 755.138 1044.12 769.538 1044.12 786.178C1044.12 806.018 1039.48 822.498 1030.2 835.618C1020.92 848.738 1007.48 857.538 989.884 862.018L988.444 852.898C1003.16 856.418 1015.96 862.178 1026.84 870.178C1038.04 877.858 1046.68 887.458 1052.76 898.978C1058.84 910.178 1061.88 923.138 1061.88 937.858C1061.88 955.138 1058.68 970.178 1052.28 982.978C1046.2 995.778 1037.4 1006.5 1025.88 1015.14C1014.68 1023.78 1001.56 1030.18 986.524 1034.34C971.804 1038.5 955.644 1040.58 938.044 1040.58H781.084ZM869.884 964.258H935.164C942.524 964.258 948.604 963.138 953.404 960.898C958.524 958.338 962.364 954.658 964.924 949.858C967.804 945.058 969.244 939.298 969.244 932.578C969.244 926.178 967.804 920.898 964.924 916.738C962.044 912.578 957.884 909.378 952.444 907.138C947.004 904.578 940.444 903.298 932.764 903.298H869.884V964.258ZM869.884 837.538H917.884C925.564 837.538 931.964 836.418 937.084 834.178C942.204 831.938 946.044 828.738 948.604 824.578C951.164 820.098 952.444 814.978 952.444 809.218C952.444 800.578 949.564 793.698 943.804 788.578C938.044 783.458 928.924 780.898 916.444 780.898H869.884V837.538Z" fill="#33434F"/>
<path d="M1114.23 1040.58V685.378H1203.51V1040.58H1114.23Z" fill="#33434F"/>
<path d="M1389.92 1045.38C1362.72 1045.38 1338.4 1039.62 1316.96 1028.1C1295.52 1016.58 1278.72 1000.9 1266.56 981.058C1254.4 961.218 1248.32 938.338 1248.32 912.418C1248.32 886.498 1254.4 863.618 1266.56 843.778C1278.72 823.938 1295.52 808.258 1316.96 796.738C1338.4 785.218 1362.72 779.458 1389.92 779.458C1417.12 779.458 1441.28 785.218 1462.4 796.738C1483.84 808.258 1500.64 823.938 1512.8 843.778C1524.96 863.618 1531.04 886.498 1531.04 912.418C1531.04 938.338 1524.96 961.218 1512.8 981.058C1500.64 1000.9 1483.84 1016.58 1462.4 1028.1C1441.28 1039.62 1417.12 1045.38 1389.92 1045.38ZM1389.92 970.018C1399.52 970.018 1408.16 967.618 1415.84 962.818C1423.84 957.698 1429.92 950.818 1434.08 942.178C1438.56 933.218 1440.8 923.298 1440.8 912.418C1440.8 900.898 1438.56 890.818 1434.08 882.178C1429.92 873.538 1423.84 866.818 1415.84 862.018C1408.16 856.898 1399.52 854.338 1389.92 854.338C1380 854.338 1371.2 856.898 1363.52 862.018C1355.84 866.818 1349.76 873.698 1345.28 882.658C1340.8 891.298 1338.56 901.218 1338.56 912.418C1338.56 923.298 1340.8 933.218 1345.28 942.178C1349.76 950.818 1355.84 957.698 1363.52 962.818C1371.2 967.618 1380 970.018 1389.92 970.018Z" fill="#33434F"/>
<path d="M1698.25 1150.98C1676.17 1150.98 1654.25 1147.78 1632.49 1141.38C1610.73 1135.3 1592.97 1127.3 1579.21 1117.38L1609.45 1056.42C1616.49 1060.9 1623.85 1064.74 1631.53 1067.94C1639.53 1071.46 1647.85 1074.02 1656.49 1075.62C1665.13 1077.22 1674.25 1078.02 1683.85 1078.02C1699.21 1078.02 1711.69 1075.78 1721.29 1071.3C1731.21 1067.14 1738.41 1060.58 1742.89 1051.62C1747.69 1042.66 1750.09 1031.14 1750.09 1017.06V976.738L1768.81 979.138C1766.57 989.698 1761.13 999.298 1752.49 1007.94C1743.85 1016.26 1732.97 1022.98 1719.85 1028.1C1707.05 1032.9 1693.61 1035.3 1679.53 1035.3C1656.49 1035.3 1636.17 1030.18 1618.57 1019.94C1600.97 1009.38 1587.05 994.818 1576.81 976.258C1566.57 957.698 1561.45 935.938 1561.45 910.978C1561.45 885.058 1566.41 862.338 1576.33 842.818C1586.57 822.978 1600.33 807.458 1617.61 796.258C1634.89 785.058 1654.73 779.458 1677.13 779.458C1686.73 779.458 1695.85 780.418 1704.49 782.338C1713.13 784.258 1721.13 786.978 1728.49 790.498C1736.17 794.018 1742.89 798.338 1748.65 803.458C1754.41 808.258 1759.05 813.538 1762.57 819.298C1766.41 825.058 1768.97 831.138 1770.25 837.538L1752.01 841.858L1756.33 784.738H1839.85V1017.06C1839.85 1038.5 1836.65 1057.38 1830.25 1073.7C1823.85 1090.34 1814.41 1104.42 1801.93 1115.94C1789.77 1127.46 1774.89 1136.1 1757.29 1141.86C1740.01 1147.94 1720.33 1150.98 1698.25 1150.98ZM1700.65 970.018C1711.53 970.018 1720.81 967.618 1728.49 962.818C1736.17 958.018 1742.09 951.298 1746.25 942.658C1750.41 934.018 1752.49 923.618 1752.49 911.458C1752.49 899.298 1750.41 888.898 1746.25 880.258C1742.09 871.298 1736.17 864.578 1728.49 860.098C1720.81 855.298 1711.53 852.898 1700.65 852.898C1689.77 852.898 1680.49 855.298 1672.81 860.098C1665.13 864.578 1659.21 871.298 1655.05 880.258C1651.21 888.898 1649.29 899.298 1649.29 911.458C1649.29 923.618 1651.21 934.018 1655.05 942.658C1659.21 951.298 1665.13 958.018 1672.81 962.818C1680.49 967.618 1689.77 970.018 1700.65 970.018Z" fill="#33434F"/>
</svg>
